{
  "asset": {
    "version": "2.0",
    "generator": "v3d.GLTFExporter"
  },
  "scenes": [
    {
      "name": "AuxScene",
      "nodes": [
        0
      ]
    }
  ],
  "scene": 0,
  "nodes": [
    {
      "matrix": [
        0.1,
        0,
        0,
        0,
        0,
        -0.1,
        5.665538897647979e-17,
        0,
        0,
        -5.665538897647979e-17,
        -0.1,
        0,
        0,
        0,
        0,
        1
      ],
      "name": "Merged Mesh",
      "mesh": 0
    }
  ],
  "bufferViews": [
    {
      "buffer": 0,
      "byteOffset": 0,
      "byteLength": 106608,
      "target": 34962,
      "byteStride": 12
    },
    {
      "buffer": 0,
      "byteOffset": 106608,
      "byteLength": 71072,
      "target": 34962,
      "byteStride": 8
    },
    {
      "buffer": 0,
      "byteOffset": 177680,
      "byteLength": 106608,
      "target": 34962,
      "byteStride": 12
    },
    {
      "buffer": 0,
      "byteOffset": 284288,
      "byteLength": 142144,
      "target": 34962,
      "byteStride": 16
    },
    {
      "buffer": 0,
      "byteOffset": 426432,
      "byteLength": 86592,
      "target": 34963
    }
  ],
  "buffers": [
    {
      "byteLength": 513024,
      "uri": "data:application/octet-stream;base64,"
    }
  ],
  "accessors": [
    {
      "bufferView": 0,
      "componentType": 5126,
      "count": 8884,
      "max": [
        101.00049591064453,
        72.94914245605469,
        16
      ],
      "min": [
        -101.00049591064453,
        -72.94914245605469,
        -16
      ],
      "type": "VEC3"
    },
    {
      "bufferView": 1,
      "componentType": 5126,
      "count": 8884,
      "max": [
        2.0011191368103027,
        1.4389344453811646
      ],
      "min": [
        -2.0039098262786865,
        -1.4389344453811646
      ],
      "type": "VEC2"
    },
    {
      "bufferView": 2,
      "componentType": 5126,
      "count": 8884,
      "max": [
        0.9999092221260071,
        1,
        1
      ],
      "min": [
        -0.9999839663505554,
        -0.999996542930603,
        -1
      ],
      "type": "VEC3"
    },
    {
      "bufferView": 3,
      "componentType": 5126,
      "count": 8884,
      "max": [
        1,
        0.9999945759773254,
        0.583661675453186,
        1
      ],
      "min": [
        -0.7057493925094604,
        -0.8658232092857361,
        -0.28081196546554565,
        -1
      ],
      "type": "VEC4"
    },
    {
      "bufferView": 4,
      "componentType": 5123,
      "count": 43296,
      "max": [
        8883
      ],
      "min": [
        0
      ],
      "type": "SCALAR"
    }
  ],
  "materials": [
    {
      "pbrMetallicRoughness": {
        "baseColorFactor": [
          0.800000011920929,
          0.800000011920929,
          0.800000011920929,
          1
        ],
        "metallicFactor": 1,
        "roughnessFactor": 1,
        "metallicRoughnessTexture": {
          "index": 0
        },
        "baseColorTexture": {
          "index": 1
        }
      },
      "name": "gradient5"
    }
  ],
  "textures": [
    {
      "sampler": 0,
      "source": 0,
      "name": "pinkgradientrgb.png.004"
    },
    {
      "sampler": 1,
      "source": 1,
      "name": "bluegradient.jpg"
    }
  ],
  "samplers": [
    {
      "magFilter": 9729,
      "minFilter": 9987,
      "wrapS": 10497,
      "wrapT": 10497
    },
    {
      "magFilter": 9729,
      "minFilter": 9987,
      "wrapS": 33071,
      "wrapT": 33071
    }
  ],
  "images": [
    {
      "mimeType": "image/png",
      "uri": "data:image/png;base64,"
    },
    {
      "mimeType": "image/jpeg",
      "uri": "data:image/jpeg;base64,"
    }
  ],
  "meshes": [
    {
      "primitives": [
        {
          "mode": 4,
          "attributes": {
            "POSITION": 0,
            "TEXCOORD_0": 1,
            "NORMAL": 2,
            "TANGENT": 3
          },
          "indices": 4,
          "material": 0
        }
      ]
    }
  ]
}